<?xml version="1.0" standalone="no"?>
<!DOCTYPE svg PUBLIC "-//W3C//DTD SVG 20010904//EN"
 "http://www.w3.org/TR/2001/REC-SVG-20010904/DTD/svg10.dtd">
<svg version="1.0" xmlns="http://www.w3.org/2000/svg"
 width="404.000000pt" height="440.000000pt" viewBox="0 0 404.000000 440.000000"
 preserveAspectRatio="xMidYMid meet">

<g transform="translate(0.000000,440.000000) scale(0.100000,-0.100000)"
fill="#000000" stroke="none">
<path d="M1800 4296 c-125 -17 -238 -40 -326 -67 l-64 -20 0 -62 0 -62 155
-155 156 -155 -3 -169 -2 -169 -41 -38 c-46 -44 -85 -52 -85 -16 0 15 11 28
38 42 l37 20 3 152 3 152 -161 159 -160 159 0 61 0 61 -62 -26 c-85 -34 -175
-80 -183 -93 -4 -6 35 -53 87 -104 51 -51 126 -127 166 -169 40 -41 87 -80
104 -86 53 -19 68 -39 68 -91 0 -50 -14 -71 -60 -88 -32 -11 -81 2 -105 28
-15 17 -31 20 -105 20 l-87 0 -31 -40 c-43 -52 -122 -79 -181 -61 -22 6 -54
23 -71 37 -119 101 -58 297 98 311 89 8 174 -59 188 -149 l7 -38 78 0 c75 0
78 1 99 29 l21 30 -168 165 c-92 91 -172 166 -177 166 -26 0 -297 -201 -358
-266 l-27 -29 -1 -290 c-1 -159 1 -311 5 -337 7 -44 5 -49 -23 -77 -56 -56
-131 -37 -161 42 l-11 27 -124 0 -124 0 -31 -86 c-17 -47 -31 -89 -31 -95 0
-5 67 -9 163 -9 132 0 190 5 298 25 74 14 144 25 157 25 l22 0 0 270 0 269 23
-8 c22 -8 22 -9 25 -266 l2 -257 73 7 c39 4 74 9 77 10 3 2 68 105 145 229 77
124 142 225 145 225 3 0 25 -30 50 -66 173 -257 418 -384 813 -418 l77 -7 0
308 c0 170 4 315 9 322 5 8 17 12 27 10 18 -3 19 -19 22 -322 l2 -318 83 7
c45 4 105 11 132 16 91 17 424 22 590 10 268 -20 479 -55 497 -84 4 -7 8 -56
8 -109 l0 -98 48 0 c26 -1 99 -2 162 -4 63 -2 118 -2 122 0 20 12 -72 317
-145 477 l-40 87 -523 0 c-305 0 -524 4 -526 9 -1 5 -92 100 -200 210 -109
110 -198 204 -198 208 0 11 49 64 226 243 l153 155 2 59 3 59 -55 19 c-83 29
-236 67 -314 78 -122 17 -390 21 -505 6z m-98 -163 c39 -35 11 -103 -43 -103
-29 0 -59 31 -59 60 0 50 64 78 102 43z m384 -8 c104 -61 111 -215 12 -275
-54 -32 -102 -35 -156 -8 -62 30 -92 76 -92 140 0 132 125 208 236 143z m306
8 c22 -20 24 -66 2 -87 -35 -35 -104 -6 -104 44 0 50 64 78 102 43z m-178
-365 c8 -14 -2 -30 -61 -91 -79 -81 -87 -104 -81 -222 3 -58 2 -60 -22 -60
-25 0 -25 0 -25 103 0 112 2 117 57 183 20 24 49 59 64 77 28 35 50 38 68 10z
m-332 -155 c1 -200 1 -204 -16 -222 -12 -11 -17 -9 -31 13 -13 20 -15 30 -7
38 8 8 10 53 5 148 -7 155 -2 190 27 190 19 0 20 -8 22 -167z m2 -315 c14 -26
15 -39 7 -60 -20 -52 -101 -33 -101 23 0 24 38 69 59 69 10 0 26 -15 35 -32z
m180 26 c27 -10 57 -70 50 -98 -6 -26 -43 -56 -67 -56 -15 0 -51 37 -60 62 -3
10 6 33 24 57 32 45 30 44 53 35z m424 -20 c26 -18 28 -50 5 -76 -20 -22 -41
-23 -65 -1 -22 20 -23 51 -1 75 20 22 32 23 61 2z m1227 -156 c30 -35 29 -76
-2 -110 -19 -21 -79 -24 -104 -5 -45 34 -50 86 -12 122 40 36 84 34 118 -7z
m-229 6 c-3 -9 -6 -21 -6 -27 0 -9 -90 -12 -353 -11 -193 1 -358 2 -364 3 -7
0 -13 12 -13 26 l0 25 371 0 c334 0 371 -2 365 -16z m-996 -98 c0 -13 -7 -27
-16 -30 -22 -8 -22 -8 -34 14 -14 26 -5 40 26 40 19 0 24 -5 24 -24z m1313
-154 c74 -70 -22 -191 -114 -142 -30 17 -52 68 -44 107 5 28 14 38 48 53 48
22 71 18 110 -18z"/>
<path d="M1939 4051 c-47 -48 -38 -116 21 -146 43 -22 76 -18 112 14 25 22 32
36 32 66 0 30 -7 44 -32 66 -44 40 -93 39 -133 0z"/>
<path d="M3627 3132 c-22 -24 -21 -45 1 -65 26 -24 49 -21 68 8 15 23 15 27 0
50 -19 30 -46 32 -69 7z"/>
<path d="M3696 2884 c-23 -23 -19 -57 10 -85 23 -22 27 -23 52 -8 38 21 51 63
27 89 -22 24 -67 26 -89 4z"/>
<path d="M2730 4113 l0 -57 -182 -182 c-155 -157 -180 -186 -172 -203 5 -11
84 -96 176 -190 l167 -171 491 0 490 0 -34 53 -34 52 -386 3 -386 2 -1 83 c0
45 0 200 1 344 l2 262 -63 31 c-34 16 -64 30 -66 30 -2 0 -3 -26 -3 -57z m22
-320 c22 -20 23 -42 2 -71 -22 -31 -74 -27 -91 7 -28 57 41 107 89 64z m-188
-79 c19 -18 19 -20 6 -45 -17 -31 -70 -18 -70 17 0 14 27 44 40 44 5 0 16 -7
24 -16z m181 -144 c23 -25 13 -67 -20 -82 -22 -10 -29 -8 -50 12 -29 27 -31
38 -9 68 19 27 55 28 79 2z"/>
<path d="M2910 3775 l0 -305 340 0 c187 0 340 3 340 6 0 3 -38 52 -84 107 -96
118 -239 257 -341 332 -79 59 -240 165 -249 165 -3 0 -6 -137 -6 -305z m138
-37 c17 -17 15 -44 -4 -62 -22 -23 -43 -20 -55 8 -21 45 26 87 59 54z m255
-46 c34 -40 22 -118 -21 -141 -86 -46 -181 58 -127 137 31 43 112 45 148 4z"/>
<path d="M3212 3658 c-30 -30 1 -73 36 -51 23 14 25 29 7 47 -20 19 -27 20
-43 4z"/>
<path d="M929 3732 c-24 -21 -32 -39 -36 -73 -5 -41 -2 -50 24 -79 22 -24 39
-33 74 -37 39 -4 50 -1 78 23 43 36 55 68 41 110 -27 81 -120 110 -181 56z"/>
<path d="M520 3599 c-91 -111 -182 -247 -235 -350 -25 -48 -45 -90 -45 -93 0
-3 53 -6 119 -6 86 0 127 4 147 15 16 8 41 15 57 15 l27 0 0 138 c0 75 3 188
7 250 3 65 2 112 -3 112 -5 -1 -38 -37 -74 -81z m-66 -265 c21 -8 21 -60 0
-68 -29 -11 -45 -6 -53 17 -16 41 12 67 53 51z"/>
<path d="M1422 3648 c-7 -7 -12 -22 -12 -35 0 -17 6 -23 23 -23 22 0 47 16 47
31 0 10 -29 39 -39 39 -4 0 -12 -5 -19 -12z"/>
<path d="M542 3108 c-18 -18 -15 -36 9 -48 26 -14 51 4 47 34 -3 24 -37 33
-56 14z"/>
<path d="M1100 2934 c-191 -17 -423 -47 -532 -70 -27 -5 -28 -7 -28 -77 0 -40
4 -77 8 -83 4 -7 28 -21 53 -33 77 -36 97 -65 110 -156 13 -96 31 -143 81
-215 60 -88 157 -153 273 -184 95 -26 276 -31 359 -12 146 35 268 118 335 230
36 60 71 170 71 223 0 63 105 124 212 123 57 -1 107 -20 157 -59 32 -26 41
-39 41 -64 1 -141 125 -329 267 -405 195 -103 526 -74 696 60 48 38 110 130
131 196 9 26 20 81 26 121 6 44 18 83 28 94 9 11 45 33 80 49 l62 28 0 79 0
78 -82 16 c-186 36 -369 52 -618 52 -266 0 -316 -7 -420 -60 -50 -25 -123 -88
-131 -112 -3 -10 -18 -7 -59 9 -80 32 -278 33 -365 1 l-59 -21 -15 21 c-49 69
-156 134 -261 157 -55 12 -334 21 -420 14z m393 -109 c93 -19 161 -58 197
-113 117 -177 -34 -457 -275 -512 -63 -14 -217 -14 -287 1 -178 38 -297 165
-315 335 -9 87 12 151 71 209 43 43 62 54 116 68 83 22 105 24 280 25 93 1
169 -3 213 -13z m1460 5 c113 -12 174 -32 224 -75 149 -127 85 -412 -115 -514
-141 -72 -373 -72 -514 0 -59 30 -138 116 -171 187 -74 158 -32 303 104 362
108 46 279 61 472 40z m-2169 -43 c9 -15 7 -22 -12 -37 -27 -23 -62 -12 -62
18 0 42 52 55 74 19z m2569 2 c15 -24 1 -49 -27 -49 -34 0 -52 33 -30 55 19
19 43 16 57 -6z"/>
<path d="M1301 2774 c-148 -74 -161 -291 -23 -388 57 -40 149 -48 208 -18 97
50 150 157 124 252 -19 69 -63 125 -122 154 -67 34 -119 33 -187 0z"/>
<path d="M2605 2785 c-23 -8 -58 -33 -81 -59 -96 -105 -82 -256 32 -342 27
-21 50 -29 94 -32 77 -6 124 11 176 63 111 112 83 289 -57 359 -59 29 -104 32
-164 11z"/>
<path d="M107 2781 c-10 -38 -17 -74 -17 -80 0 -7 38 -11 118 -11 l118 0 52
-75 c47 -68 55 -75 86 -75 18 0 54 -3 80 -6 l46 -7 0 36 c0 33 -4 38 -52 64
l-53 28 -3 98 -3 97 -178 0 -178 0 -16 -69z"/>
<path d="M63 2553 c-10 -100 -10 -424 0 -485 l8 -48 135 0 134 0 11 -27 c5
-14 49 -71 97 -125 109 -125 118 -136 105 -149 -8 -8 -132 110 -189 181 -48
61 -57 64 -175 65 -97 1 -109 -1 -109 -17 0 -63 92 -358 142 -452 l15 -29 139
2 c127 2 144 5 192 28 l54 26 -6 396 c-3 218 -9 433 -12 479 l-6 82 -91 0 -92
0 -42 -47 -41 -48 64 -67 64 -66 0 -106 c0 -99 -1 -106 -20 -106 -19 0 -20 7
-20 93 l0 94 -75 74 c-41 41 -75 78 -75 82 0 5 22 29 49 53 70 63 71 74 19
139 l-43 54 -112 1 -111 0 -9 -77z m185 -361 c27 -35 1 -92 -44 -92 -25 0 -54
34 -54 62 0 9 10 26 22 38 24 22 54 19 76 -8z m188 -486 c42 -42 45 -82 8
-125 -21 -26 -33 -31 -68 -31 -97 0 -127 119 -44 170 46 28 65 25 104 -14z"/>
<path d="M354 1656 c-10 -26 4 -48 28 -44 17 2 23 10 23 28 0 18 -6 26 -23 28
-13 2 -25 -3 -28 -12z"/>
<path d="M3510 2616 c-29 -10 -36 -18 -38 -44 l-3 -31 238 -3 c131 -2 240 -2
242 -1 2 1 0 23 -3 48 l-7 45 -197 -1 c-131 0 -209 -5 -232 -13z"/>
<path d="M3465 2423 c-13 -116 -26 -180 -56 -271 -17 -52 -29 -95 -27 -97 8
-7 554 -15 564 -8 7 4 13 44 15 88 l4 80 -80 2 c-79 1 -80 1 -117 -34 -30 -30
-44 -36 -79 -36 -35 0 -48 6 -71 32 -46 51 -36 116 24 147 42 22 90 11 122
-26 24 -29 27 -30 115 -30 l91 0 0 44 c0 23 -3 71 -6 105 l-7 61 -243 0 -243
0 -6 -57z"/>
<path d="M1884 2255 c-38 -38 -17 -90 61 -147 44 -33 44 -33 45 -95 0 -56 -3
-65 -33 -96 -20 -22 -49 -39 -77 -47 -60 -16 -74 -24 -78 -44 -14 -69 139 -55
209 20 l21 22 44 -34 c25 -18 68 -40 96 -49 46 -13 54 -13 75 1 42 27 27 56
-40 77 -97 31 -147 103 -130 188 3 18 18 36 39 49 44 28 94 86 94 111 0 61
-59 84 -133 51 -45 -20 -46 -20 -84 -1 -50 26 -79 24 -109 -6z"/>
<path d="M3660 2259 c-20 -37 28 -67 58 -37 16 16 15 23 -4 42 -21 22 -41 20
-54 -5z"/>
<path d="M681 1809 l-1 -285 48 -20 c30 -13 60 -36 78 -59 25 -34 29 -47 29
-105 0 -58 -4 -71 -29 -104 -76 -101 -225 -98 -293 5 -24 37 -28 52 -27 111
l1 68 -115 0 c-105 0 -114 -1 -108 -17 15 -39 90 -163 149 -244 256 -355 626
-609 1042 -715 33 -8 68 -17 78 -20 15 -5 17 2 17 54 0 162 96 312 234 364 43
17 63 19 126 12 90 -9 134 -9 220 1 82 9 115 -4 192 -74 83 -76 128 -171 135
-284 l6 -84 81 17 c148 33 156 8 -70 245 -215 225 -228 240 -219 255 16 26 52
-2 197 -152 303 -317 275 -291 305 -283 43 10 243 102 329 151 205 117 415
324 568 561 51 80 138 249 161 313 l14 40 -114 0 -114 0 14 -41 c31 -86 6
-168 -63 -214 -87 -57 -187 -35 -244 54 -25 39 -29 54 -25 98 4 59 35 111 82
140 27 16 54 18 260 18 l230 0 21 75 21 75 -177 3 -178 2 -30 -30 c-39 -38
-83 -40 -117 -5 -26 26 -33 72 -15 105 21 40 103 46 136 9 16 -17 33 -19 209
-19 l192 0 12 63 c7 34 14 70 17 80 5 16 -14 17 -299 17 l-305 0 -13 -32 c-43
-105 -198 -290 -322 -383 -270 -204 -573 -298 -967 -298 -201 -1 -289 9 -449
49 -426 106 -797 411 -901 744 -5 14 -9 -103 -9 -261z m565 -522 c103 -53 164
-146 172 -262 4 -62 1 -81 -20 -127 -81 -176 -257 -233 -439 -142 -120 60
-186 213 -149 346 24 85 118 181 204 208 55 17 177 5 232 -23z m1834 14 c122
-46 206 -166 204 -291 -1 -108 -73 -213 -183 -267 -47 -24 -69 -28 -136 -28
-103 1 -168 28 -229 96 -149 166 -72 434 144 500 48 14 148 10 200 -10z
m-1492 -176 c4 -18 -13 -35 -35 -35 -14 0 -28 44 -19 59 10 15 50 -3 54 -24z
m658 25 l341 0 -5 -25 -4 -25 -462 2 -461 3 -3 22 c-4 29 14 33 143 28 61 -3
264 -5 451 -5z m-666 -201 c0 -72 -2 -79 -20 -79 -18 0 -20 7 -20 78 0 83 3
94 26 85 10 -4 14 -26 14 -84z m944 70 c51 -40 24 -121 -41 -121 -31 0 -73 42
-73 73 0 25 43 69 68 69 11 0 31 -9 46 -21z m-746 -112 c3 -23 0 -27 -22 -27
-21 0 -26 5 -26 23 0 13 3 27 7 31 15 14 38 0 41 -27z m-448 -282 c0 -58 -2
-65 -20 -65 -18 0 -20 7 -20 65 0 58 2 65 20 65 18 0 20 -7 20 -65z"/>
<path d="M1046 1059 c-66 -78 7 -187 104 -155 42 13 76 72 66 112 -11 43 -53
74 -102 74 -35 0 -47 -5 -68 -31z"/>
<path d="M2903 1055 c-30 -30 -34 -39 -28 -67 11 -47 25 -66 64 -82 86 -34
165 45 126 127 -31 66 -107 77 -162 22z"/>
<path d="M2461 1001 c-34 -34 -22 -81 20 -81 39 0 56 64 22 87 -19 13 -24 12
-42 -6z"/>
<path d="M3403 1540 c-60 -36 -72 -106 -27 -159 33 -40 80 -49 129 -25 76 36
82 141 12 184 -40 25 -73 25 -114 0z"/>
<path d="M581 1419 c-35 -35 -42 -89 -17 -138 28 -52 112 -68 161 -29 92 72
46 198 -72 198 -33 0 -48 -6 -72 -31z"/>
<path d="M2293 783 c4 -3 -1 -16 -10 -27 -18 -21 -18 -21 4 -2 20 16 23 36 6
36 -4 0 -3 -3 0 -7z"/>
<path d="M2245 765 c-16 -8 -56 -14 -88 -15 -32 0 -73 -7 -92 -15 -31 -12 -40
-12 -76 0 -60 22 -147 19 -186 -5 -74 -45 -130 -167 -120 -264 9 -98 43 -164
126 -246 42 -41 102 -89 133 -105 53 -28 59 -29 95 -16 57 20 168 97 208 144
88 102 126 250 91 355 -9 28 -35 70 -56 95 l-39 44 22 21 c25 25 23 26 -18 7z
m-246 -86 l39 -21 30 22 c19 14 51 25 82 28 45 4 54 2 79 -22 144 -138 77
-379 -143 -510 -33 -20 -66 -36 -75 -36 -27 0 -161 91 -196 134 -101 123 -114
265 -36 375 46 64 138 76 220 30z"/>
<path d="M1948 520 c-65 -51 -22 -180 60 -180 62 0 119 64 107 120 -15 69
-112 104 -167 60z"/>
</g>
</svg>
